<svg width="192" height="90" viewBox="0 0 192 90" fill="none" xmlns="http://www.w3.org/2000/svg">
<rect width="181.373" height="74.7566" transform="translate(5.31348 9.53748)" fill="#AC7201"/>
<rect opacity="0.5" x="10.6274" y="78.7566" width="171.1" height="5.53753" fill="#AC7201"/>
<rect x="5.31348" y="75.9879" width="5.31365" height="8.30629" fill="#AC7201"/>
<rect x="5.31348" y="9.53748" width="5.31365" height="8.30629" fill="#AC7201"/>
<rect x="182.081" y="75.9879" width="5.31365" height="8.30629" fill="#AC7201"/>
<rect x="181.373" y="9.53748" width="5.31365" height="8.30629" fill="#AC7201"/>
<rect x="11.3359" y="4" width="170.037" height="5.53753" fill="#AC7201"/>
<rect x="10.6274" y="84.2942" width="171.454" height="5.53753" fill="#AC7201"/>
<rect x="5.31348" y="17.8439" width="58.144" height="5.31365" transform="rotate(90 5.31348 17.8439)" fill="#AC7201"/>
<rect x="192" y="17.8439" width="58.144" height="5.31365" transform="rotate(90 192 17.8439)" fill="#AC7201"/>
<rect width="173.906" height="73" transform="translate(8.04199 5)" fill="#E18F31"/>
<rect x="12.042" y="78" width="165" height="5" fill="#572701"/>
<path d="M53.1377 52V27.9032H61.2962C63.1322 27.9032 64.6468 28.2245 65.8402 28.8671C67.0336 29.4867 67.9171 30.3473 68.4908 31.4489C69.0646 32.5504 69.3514 33.8127 69.3514 35.2355C69.3514 36.6584 69.0646 37.9206 68.4908 39.0222C67.9171 40.1237 67.0336 40.9958 65.8402 41.6384C64.6468 42.258 63.1322 42.5678 61.2962 42.5678H56.7867V52H53.1377ZM56.7867 39.2975H61.1241C62.6847 39.2975 63.8207 38.9304 64.5321 38.196C65.2665 37.4616 65.6336 36.4748 65.6336 35.2355C65.6336 34.0192 65.2665 33.0439 64.5321 32.3095C63.8207 31.5522 62.6847 31.1735 61.1241 31.1735H56.7867V39.2975ZM80.1127 52.4131C78.7587 52.4131 77.6227 52.1836 76.7047 51.7246C75.7868 51.2427 75.0983 50.6116 74.6393 49.8313C74.1803 49.0281 73.9508 48.156 73.9508 47.2151C73.9508 45.5398 74.559 44.2317 75.7753 43.2907C77.0145 42.3498 78.7587 41.8793 81.0077 41.8793H85.414V41.5007C85.414 38.9304 84.2206 37.6452 81.8339 37.6452C80.8471 37.6452 80.0094 37.8632 79.3209 38.2993C78.6554 38.7123 78.2079 39.3893 77.9784 40.3303H74.3295C74.5131 38.5402 75.2819 37.1288 76.6359 36.0961C78.0128 35.0404 79.7455 34.5126 81.8339 34.5126C84.3583 34.5126 86.1943 35.1322 87.3417 36.3715C88.4892 37.6108 89.0629 39.3205 89.0629 41.5007V52H85.9648L85.655 49.487H85.414C84.9091 50.2903 84.278 50.9788 83.5207 51.5525C82.7633 52.1262 81.6274 52.4131 80.1127 52.4131ZM80.8012 49.3494C82.2929 49.3494 83.4059 48.9018 84.1403 48.0068C84.8976 47.0888 85.3107 45.9299 85.3796 44.53H81.3864C80.0783 44.53 79.1488 44.748 78.598 45.184C78.0702 45.5971 77.8063 46.1823 77.8063 46.9397C77.8063 47.697 78.0702 48.2937 78.598 48.7297C79.1488 49.1428 79.8832 49.3494 80.8012 49.3494ZM102.44 52.4131C100.191 52.4131 98.4013 51.8853 97.0703 50.8296C95.7392 49.7739 94.9819 48.374 94.7983 46.6299H98.5505C98.6882 47.4331 99.0898 48.0871 99.7554 48.592C100.444 49.0969 101.35 49.3494 102.475 49.3494C103.553 49.3494 104.38 49.1313 104.953 48.6953C105.55 48.2363 105.848 47.7085 105.848 47.1118C105.848 46.2397 105.493 45.643 104.781 45.3217C104.093 45.0005 103.072 44.7595 101.718 44.5988C100.547 44.4611 99.48 44.1972 98.5161 43.8071C97.5752 43.394 96.8293 42.8432 96.2785 42.1547C95.7277 41.4433 95.4524 40.5598 95.4524 39.5041C95.4524 38.0124 96.0376 36.8075 97.208 35.8896C98.3784 34.9716 100.008 34.5126 102.096 34.5126C104.185 34.5126 105.802 34.9831 106.95 35.924C108.097 36.8649 108.763 38.1501 108.947 39.7795H105.435C105.344 39.091 104.988 38.5517 104.368 38.1616C103.749 37.7485 102.98 37.5419 102.062 37.5419C101.121 37.5419 100.375 37.7255 99.8242 38.0927C99.2734 38.4369 98.998 38.8959 98.998 39.4697C98.998 40.7089 100.329 41.4663 102.991 41.7417C104.253 41.8793 105.378 42.1203 106.365 42.4646C107.352 42.7858 108.132 43.3022 108.706 44.0136C109.279 44.7021 109.566 45.6775 109.566 46.9397C109.589 47.9724 109.291 48.9018 108.671 49.728C108.074 50.5542 107.237 51.2082 106.158 51.6902C105.103 52.1721 103.863 52.4131 102.44 52.4131ZM123.081 52.4131C120.832 52.4131 119.042 51.8853 117.711 50.8296C116.38 49.7739 115.623 48.374 115.439 46.6299H119.191C119.329 47.4331 119.731 48.0871 120.396 48.592C121.085 49.0969 121.991 49.3494 123.116 49.3494C124.194 49.3494 125.021 49.1313 125.594 48.6953C126.191 48.2363 126.489 47.7085 126.489 47.1118C126.489 46.2397 126.134 45.643 125.422 45.3217C124.734 45.0005 123.712 44.7595 122.358 44.5988C121.188 44.4611 120.121 44.1972 119.157 43.8071C118.216 43.394 117.47 42.8432 116.919 42.1547C116.369 41.4433 116.093 40.5598 116.093 39.5041C116.093 38.0124 116.679 36.8075 117.849 35.8896C119.019 34.9716 120.649 34.5126 122.737 34.5126C124.826 34.5126 126.443 34.9831 127.591 35.924C128.738 36.8649 129.404 38.1501 129.587 39.7795H126.076C125.984 39.091 125.629 38.5517 125.009 38.1616C124.389 37.7485 123.621 37.5419 122.703 37.5419C121.762 37.5419 121.016 37.7255 120.465 38.0927C119.914 38.4369 119.639 38.8959 119.639 39.4697C119.639 40.7089 120.97 41.4663 123.632 41.7417C124.894 41.8793 126.019 42.1203 127.006 42.4646C127.993 42.7858 128.773 43.3022 129.347 44.0136C129.92 44.7021 130.207 45.6775 130.207 46.9397C130.23 47.9724 129.932 48.9018 129.312 49.728C128.715 50.5542 127.878 51.2082 126.799 51.6902C125.743 52.1721 124.504 52.4131 123.081 52.4131Z" fill="#FBF7D1"/>
<rect opacity="0.5" x="10.3076" y="5" width="166.476" height="4" fill="#B54406"/>
<rect opacity="0.5" x="10.9277" y="13" width="57" height="3.50476" transform="rotate(90 10.9277 13)" fill="#B54406"/>
<rect opacity="0.5" x="181.785" y="13" width="58" height="3.50476" transform="rotate(90 181.785 13)" fill="#B54406"/>
<rect opacity="0.5" x="10.9277" y="74" width="166.476" height="4" fill="#B54406"/>
<rect x="5.67041" y="70" width="5.25714" height="8" fill="#572701"/>
<rect x="176.528" y="70" width="5.25714" height="8" fill="#572701"/>
<rect x="176.528" y="5" width="5.25714" height="8" fill="#572701"/>
<rect x="12.6802" width="163.848" height="5" fill="#572701"/>
<rect x="7.42285" y="13" width="57" height="4.38095" transform="rotate(90 7.42285 13)" fill="#572701"/>
<rect x="187.042" y="13" width="57" height="5.25714" transform="rotate(90 187.042 13)" fill="#572701"/>
<rect x="8.04199" y="5" width="6" height="8" fill="#572701"/>
</svg>
