<svg width="967" height="108" viewBox="0 0 967 108" fill="none" xmlns="http://www.w3.org/2000/svg">
<path d="M7 72H31V84H67V60H19V48H7V24H19V12H67V24H79V36H55V24H31V48H79V60H91V84H79V96H19V84H7V72ZM187 12V24H163V96H139V24H115V12H187ZM223 36V60H259V36H247V24H235V36H223ZM199 36H211V24H223V12H259V24H271V36H283V96H259V72H223V96H199V36ZM319 24V60H343V48H355V24H319ZM295 12H367V24H379V60H355V72H367V84H379V96H343V84H331V72H319V96H295V12ZM475 12V24H451V96H427V24H403V12H475ZM583 36H595V24H607V12H667V24H619V36H607V72H619V84H643V60H631V48H667V96H607V84H595V72H583V36ZM703 36V60H739V36H727V24H715V36H703ZM679 36H691V24H703V12H739V24H751V36H763V96H739V72H703V96H679V36ZM775 12H799V24H811V36H823V24H835V12H859V96H835V60H823V72H811V60H799V96H775V12ZM955 12V24H907V48H943V60H907V84H955V96H883V12H955Z" fill="#3C1D05"/>
<path d="M0 60H24V72H60V48H12V36H0V12H12V0H60V12H72V24H48V12H24V36H72V48H84V72H72V84H12V72H0V60ZM180 0V12H156V84H132V12H108V0H180ZM216 24V48H252V24H240V12H228V24H216ZM192 24H204V12H216V0H252V12H264V24H276V84H252V60H216V84H192V24ZM312 12V48H336V36H348V12H312ZM288 0H360V12H372V48H348V60H360V72H372V84H336V72H324V60H312V84H288V0ZM468 0V12H444V84H420V12H396V0H468ZM576 24H588V12H600V0H660V12H612V24H600V60H612V72H636V48H624V36H660V84H600V72H588V60H576V24ZM696 24V48H732V24H720V12H708V24H696ZM672 24H684V12H696V0H732V12H744V24H756V84H732V60H696V84H672V24ZM768 0H792V12H804V24H816V12H828V0H852V84H828V48H816V60H804V48H792V84H768V0ZM948 0V12H900V36H936V48H900V72H948V84H876V0H948Z" fill="#E18F31"/>
<mask id="mask0_223_2476" style="mask-type:alpha" maskUnits="userSpaceOnUse" x="0" y="0" width="948" height="84">
<path d="M0 60H24V72H60V48H12V36H0V12H12V0H60V12H72V24H48V12H24V36H72V48H84V72H72V84H12V72H0V60ZM180 0V12H156V84H132V12H108V0H180ZM216 24V48H252V24H240V12H228V24H216ZM192 24H204V12H216V0H252V12H264V24H276V84H252V60H216V84H192V24ZM312 12V48H336V36H348V12H312ZM288 0H360V12H372V48H348V60H360V72H372V84H336V72H324V60H312V84H288V0ZM468 0V12H444V84H420V12H396V0H468ZM576 24H588V12H600V0H660V12H612V24H600V60H612V72H636V48H624V36H660V84H600V72H588V60H576V24ZM696 24V48H732V24H720V12H708V24H696ZM672 24H684V12H696V0H732V12H744V24H756V84H732V60H696V84H672V24ZM768 0H792V12H804V24H816V12H828V0H852V84H828V48H816V60H804V48H792V84H768V0ZM948 0V12H900V36H936V48H900V72H948V84H876V0H948Z" fill="#F9BA43"/>
</mask>
<g mask="url(#mask0_223_2476)">
<rect x="-17" y="-40" width="994" height="100" fill="#FFB934"/>
</g>
</svg>
