<svg width="192" height="90" viewBox="0 0 192 90" fill="none" xmlns="http://www.w3.org/2000/svg">
<rect width="181.373" height="74.7566" transform="translate(5.31348 9.53754)" fill="#AC7201"/>
<rect opacity="0.5" x="10.6274" y="78.7567" width="171.1" height="5.53753" fill="#AC7201"/>
<rect x="5.31348" y="75.9879" width="5.31365" height="8.30629" fill="#AC7201"/>
<rect x="5.31348" y="9.53754" width="5.31365" height="8.30629" fill="#AC7201"/>
<rect x="182.081" y="75.9879" width="5.31365" height="8.30629" fill="#AC7201"/>
<rect x="181.373" y="9.53754" width="5.31365" height="8.30629" fill="#AC7201"/>
<rect x="11.3359" y="4" width="170.037" height="5.53753" fill="#AC7201"/>
<rect x="10.6274" y="84.2942" width="171.454" height="5.53753" fill="#AC7201"/>
<rect x="5.31348" y="17.8438" width="58.144" height="5.31365" transform="rotate(90 5.31348 17.8438)" fill="#AC7201"/>
<rect x="192" y="17.8438" width="58.144" height="5.31365" transform="rotate(90 192 17.8438)" fill="#AC7201"/>
<rect width="173.906" height="73" transform="translate(8.04199 5)" fill="#FBF7D1"/>
<rect x="12.042" y="78" width="165" height="5" fill="#572701"/>
<path d="M53.2754 52V27.9032H61.1585C63.0404 27.9032 64.5895 28.2245 65.8058 28.8671C67.045 29.5097 67.963 30.3817 68.5597 31.4833C69.1793 32.5619 69.4891 33.7897 69.4891 35.1667C69.4891 36.7272 69.0875 38.1157 68.2843 39.332C67.504 40.5253 66.2992 41.3974 64.6698 41.9482L69.7301 52H65.496L60.8831 42.4646H56.9244V52H53.2754ZM56.9244 39.1599H60.952C62.6043 39.1599 63.8092 38.7927 64.5665 38.0583C65.3468 37.3239 65.7369 36.36 65.7369 35.1667C65.7369 33.9504 65.3583 32.9865 64.6009 32.2751C63.8436 31.5407 62.6158 31.1735 60.9176 31.1735H56.9244V39.1599ZM81.6618 52.4131C80.0324 52.4131 78.5751 52.0459 77.2899 51.3115C76.0048 50.5771 74.995 49.5444 74.2606 48.2134C73.5262 46.8594 73.1591 45.2758 73.1591 43.4629C73.1591 41.6499 73.5262 40.0778 74.2606 38.7468C74.995 37.3928 76.0048 36.3486 77.2899 35.6142C78.5751 34.8798 80.0439 34.5126 81.6962 34.5126C83.3486 34.5126 84.8058 34.8798 86.0681 35.6142C87.3532 36.3486 88.3515 37.3928 89.0629 38.7468C89.7973 40.0778 90.1645 41.6499 90.1645 43.4629C90.1645 45.2758 89.7973 46.8594 89.0629 48.2134C88.3286 49.5444 87.3188 50.5771 86.0336 51.3115C84.7714 52.0459 83.3141 52.4131 81.6618 52.4131ZM81.6618 48.9363C82.5339 48.9363 83.3371 48.7412 84.0715 48.3511C84.8058 47.9609 85.391 47.3642 85.8271 46.561C86.2861 45.7348 86.5156 44.7021 86.5156 43.4629C86.5156 42.2006 86.2861 41.1679 85.8271 40.3647C85.391 39.5615 84.8058 38.9648 84.0715 38.5746C83.36 38.1845 82.5683 37.9894 81.6962 37.9894C80.8241 37.9894 80.0209 38.1845 79.2865 38.5746C78.5521 38.9648 77.9555 39.5615 77.4965 40.3647C77.0604 41.1679 76.8424 42.2006 76.8424 43.4629C76.8424 45.3447 77.3129 46.7331 78.2538 47.6282C79.2177 48.5002 80.3537 48.9363 81.6618 48.9363ZM94.3164 52V48.833H100.031V31.5177C100.031 30.7604 99.6636 30.3817 98.9292 30.3817H94.7983V27.2147H99.5832C100.914 27.2147 101.924 27.5704 102.613 28.2819C103.324 28.9704 103.68 29.9801 103.68 31.3112V48.833H109.428V52H94.3164ZM114.957 52V48.833H120.672V31.5177C120.672 30.7604 120.304 30.3817 119.57 30.3817H115.439V27.2147H120.224C121.555 27.2147 122.565 27.5704 123.253 28.2819C123.965 28.9704 124.321 29.9801 124.321 31.3112V48.833H130.069V52H114.957Z" fill="#E18F31"/>
<rect opacity="0.5" x="10.3076" y="5" width="166.476" height="4" fill="#B54406"/>
<rect opacity="0.5" x="10.9277" y="13" width="57" height="3.50476" transform="rotate(90 10.9277 13)" fill="#B54406"/>
<rect opacity="0.5" x="181.785" y="13" width="58" height="3.50476" transform="rotate(90 181.785 13)" fill="#B54406"/>
<rect opacity="0.5" x="10.9277" y="74" width="166.476" height="4" fill="#B54406"/>
<rect x="5.67041" y="70" width="5.25714" height="8" fill="#572701"/>
<rect x="176.528" y="70" width="5.25714" height="8" fill="#572701"/>
<rect x="176.528" y="5" width="5.25714" height="8" fill="#572701"/>
<rect x="12.6802" width="163.848" height="5" fill="#572701"/>
<rect x="7.42285" y="13" width="57" height="4.38095" transform="rotate(90 7.42285 13)" fill="#572701"/>
<rect x="187.042" y="13" width="57" height="5.25714" transform="rotate(90 187.042 13)" fill="#572701"/>
<rect x="8.04199" y="5" width="6" height="8" fill="#572701"/>
</svg>
